#N struct 1005-symarray float x array symbols 1005-sym;
#N struct 1005-sym symbol name float on;
#N canvas 209 134 1231 766 10;
#X obj 755 86 hradio 15 1 0 12 empty empty empty 0 -8 0 10 -262144
-1 -1 0;
#N canvas 473 338 450 300 count 0;
#X obj 131 154 f 0;
#X obj 156 153 + 1;
#X msg 147 133 0;
#X obj 131 183 outlet;
#X obj 131 59 inlet;
#X obj 131 96 b;
#X obj 178 61 inlet;
#X obj 178 98 b;
#X connect 0 0 1 0;
#X connect 0 0 3 0;
#X connect 1 0 0 1;
#X connect 2 0 0 1;
#X connect 4 0 5 0;
#X connect 5 0 0 0;
#X connect 6 0 7 0;
#X connect 7 0 2 0;
#X restore 924 203 pd count;
#X obj 843 178 t a b;
#X obj 843 227 list prepend;
#X msg 767 227 reset;
#X obj 843 105 bng 15 250 50 0 empty empty empty 17 7 0 10 -262144
-1 -1;
#X obj 843 128 t b b b;
#X msg 708 228 print;
#X obj 843 279 print NOTES;
#X msg 708 203 dump;
#X obj 755 252 m_symbolarray;
#X obj 755 64 mod 12;
#X obj 451 326 unpack;
#X obj 451 305 route 1 2 3 4;
#X floatatom 62 453 5 0 0 0 - - -;
#X obj 109 375 + 0.499;
#X obj 109 396 int;
#X obj 302 119 loadbang;
#X obj 109 337 line;
#X floatatom 109 358 5 0 0 0 - - -;
#X obj 109 316 pack 0 20;
#X msg 302 139 vibrato 200 0.5;
#X obj 362 317 t f f;
#X floatatom 362 338 5 0 0 0 - - -;
#X obj 290 347 t f f;
#X floatatom 290 368 5 0 0 0 - - -;
#X floatatom 290 408 5 0 0 0 - - -;
#X obj 290 387 -;
#X obj 361 442 trigger f f;
#X obj 361 463 t f b;
#X obj 361 484 f;
#X obj 361 505 +;
#X obj 361 526 * 0.5;
#X floatatom 361 547 5 0 0 0 - - -;
#X obj 362 296 max 1e-21;
#X obj 193 265 fiddle~ 2048 1 20 3;
#X obj 362 356 * 0.775;
#X obj 362 417 s amp-high;
#X obj 290 496 s amp-low;
#X obj 307 164 r amp-low;
#X obj 377 164 r amp-high;
#X obj 307 185 pack 0 0;
#X obj 362 377 int;
#X obj 290 426 int;
#X obj 290 447 abs;
#X floatatom 451 347 5 0 0 0 - - -;
#X obj 799 391 notein;
#X msg 62 574 add2 \$1;
#X msg 62 595 57;
#X obj 62 471 t f b;
#X obj 109 458 s note;
#X obj 755 37 r note;
#X obj 93 491 f;
#X obj 123 491 + 1;
#X obj 93 533 sel 0;
#X msg 93 554 set;
#X text 404 547 Average amplitude;
#X obj 93 512 mod 30;
#X obj 109 417 change;
#X text 48 417 Change?;
#X text 40 844 To Do: Midi notes in \, Scale recognition;
#X obj 290 305 change 0;
#X obj 362 398 change;
#X obj 290 468 change;
#X obj 799 422 stripnote;
#X obj 799 463 t f b b;
#X obj 799 514 pack f f;
#X obj 852 495 timer;
#X obj 799 565 list prepend;
#X obj 829 534 t 1;
#X obj 725 589 list append;
#X obj 725 610 list prepend set;
#X obj 725 661 textfile;
#X obj 900 442 bng 15 250 50 0 empty empty empty 17 7 0 10 -262144
-1 -1;
#X obj 900 462 t b b b;
#X msg 946 482 clear;
#X obj 656 511 bng 15 250 50 0 empty empty empty 17 7 0 10 -262144
-1 -1;
#X obj 656 530 t b b;
#X msg 656 551 write ./sq.txt cr;
#X obj 1058 400 bng 15 250 50 0 empty empty empty 17 7 0 10 -262144
-1 -1;
#X obj 1058 420 t b b b;
#X obj 1058 500 textfile;
#X obj 1058 521 list split 2;
#X obj 1088 552 unpack f f;
#X obj 997 552 list append;
#X obj 1155 572 del;
#X obj 1038 618 t b b;
#X obj 1070 639 f;
#X obj 1070 660 s midi-note;
#X msg 1081 440 rewind;
#X msg 1104 460 read ./sq.txt;
#X text 1057 379 load-playback;
#X text 897 424 start-record;
#X text 654 494 write;
#X obj 738 491 s midi-note;
#N canvas 0 22 728 616 tempo-analysis 0;
#X obj 271 258 timer;
#X obj 272 124 f;
#X obj 303 124 + 1;
#X obj 338 173 sel 3;
#X msg 428 72 0;
#X obj 271 185 moses 1;
#X obj 271 308 f;
#X obj 303 308 +;
#X obj 271 284 t b f;
#X obj 340 308 == 3;
#X obj 271 370 spigot;
#X obj 271 342 /;
#X obj 272 146 t f f f;
#X obj 272 82 bng 15 250 50 0 empty empty empty 17 7 0 10 -262144 -1
-1;
#X obj 271 394 expr 60000 / $f1;
#X floatatom 271 415 5 0 0 0 - - -;
#X obj 271 210 t b;
#X obj 302 210 t b b;
#X obj 272 40 inlet;
#X obj 271 433 outlet;
#X connect 0 0 8 0;
#X connect 1 0 2 0;
#X connect 1 0 12 0;
#X connect 2 0 1 1;
#X connect 3 0 4 0;
#X connect 4 0 1 1;
#X connect 4 0 7 1;
#X connect 5 0 16 0;
#X connect 5 1 17 0;
#X connect 6 0 7 1;
#X connect 6 0 11 0;
#X connect 7 0 6 1;
#X connect 8 0 6 0;
#X connect 8 1 7 0;
#X connect 9 0 10 1;
#X connect 10 0 14 0;
#X connect 11 0 10 0;
#X connect 12 0 3 0;
#X connect 12 1 5 0;
#X connect 12 2 9 0;
#X connect 12 2 11 1;
#X connect 13 0 1 0;
#X connect 14 0 15 0;
#X connect 15 0 19 0;
#X connect 16 0 0 0;
#X connect 17 0 0 0;
#X connect 17 1 0 1;
#X connect 18 0 13 0;
#X restore 225 518 pd tempo-analysis;
#X floatatom 225 539 5 0 0 0 - - -;
#X obj 842 54 loadbang;
#X obj 290 326 min 100;
#X obj 232 294 bng 15 250 50 0 empty empty empty 17 7 0 10 -262144
-1 -1;
#N canvas 0 22 728 616 tempo-analysis 0;
#X obj 271 258 timer;
#X obj 272 124 f;
#X obj 303 124 + 1;
#X obj 338 173 sel 3;
#X msg 428 72 0;
#X obj 271 185 moses 1;
#X obj 271 308 f;
#X obj 303 308 +;
#X obj 271 284 t b f;
#X obj 340 308 == 3;
#X obj 271 370 spigot;
#X obj 271 342 /;
#X obj 272 146 t f f f;
#X obj 272 82 bng 15 250 50 0 empty empty empty 17 7 0 10 -262144 -1
-1;
#X obj 271 394 expr 60000 / $f1;
#X floatatom 271 415 5 0 0 0 - - -;
#X obj 271 210 t b;
#X obj 302 210 t b b;
#X obj 272 40 inlet;
#X obj 271 433 outlet;
#X connect 0 0 8 0;
#X connect 1 0 2 0;
#X connect 1 0 12 0;
#X connect 2 0 1 1;
#X connect 3 0 4 0;
#X connect 4 0 1 1;
#X connect 4 0 7 1;
#X connect 5 0 16 0;
#X connect 5 1 17 0;
#X connect 6 0 7 1;
#X connect 6 0 11 0;
#X connect 7 0 6 1;
#X connect 8 0 6 0;
#X connect 8 1 7 0;
#X connect 9 0 10 1;
#X connect 10 0 14 0;
#X connect 11 0 10 0;
#X connect 12 0 3 0;
#X connect 12 1 5 0;
#X connect 12 2 9 0;
#X connect 12 2 11 1;
#X connect 13 0 1 0;
#X connect 14 0 15 0;
#X connect 15 0 19 0;
#X connect 16 0 0 0;
#X connect 17 0 0 0;
#X connect 17 1 0 1;
#X connect 18 0 13 0;
#X restore 187 559 pd tempo-analysis;
#X floatatom 187 580 5 0 0 0 - - -;
#X msg 307 204 amp-range 50 \$2;
#X obj 193 75 r~ DRY;
#X obj 100 100 cnv 15 85 88 empty empty empty 20 12 0 14 -191407 -66577
0;
#X obj 110 132 nbx 3 20 -1e+37 1e+37 0 0 empty empty empty 0 -8 0 20
-204800 -1 -1 0 256;
#X text 103 101 analysis;
#X msg 843 153 C \, C# \, D \, D# \, E \, F \, F# \, G \, G# \, A \,
A# \, B;
#X symbolatom 111 162 10 0 0 0 - - -;
#X obj 237 122 env~;
#X floatatom 237 148 5 0 0 0 - - -;
#X connect 0 0 10 0;
#X connect 1 0 3 1;
#X connect 2 0 3 0;
#X connect 2 1 1 0;
#X connect 3 0 10 1;
#X connect 4 0 10 0;
#X connect 5 0 6 0;
#X connect 6 0 107 0;
#X connect 6 1 4 0;
#X connect 6 2 1 1;
#X connect 7 0 10 0;
#X connect 9 0 10 0;
#X connect 10 0 108 0;
#X connect 10 1 8 0;
#X connect 11 0 0 0;
#X connect 12 0 45 0;
#X connect 13 0 12 0;
#X connect 14 0 49 0;
#X connect 15 0 16 0;
#X connect 16 0 58 0;
#X connect 17 0 21 0;
#X connect 18 0 19 0;
#X connect 19 0 15 0;
#X connect 20 0 18 0;
#X connect 21 0 35 0;
#X connect 22 0 23 0;
#X connect 22 1 34 1;
#X connect 23 0 36 0;
#X connect 23 0 27 1;
#X connect 24 0 25 0;
#X connect 24 1 98 1;
#X connect 25 0 27 0;
#X connect 26 0 43 0;
#X connect 27 0 26 0;
#X connect 28 0 29 0;
#X connect 28 1 31 1;
#X connect 29 0 30 1;
#X connect 29 1 30 0;
#X connect 30 0 31 0;
#X connect 31 0 32 0;
#X connect 32 0 33 0;
#X connect 34 0 22 0;
#X connect 35 0 20 0;
#X connect 35 1 95 0;
#X connect 35 1 99 0;
#X connect 35 3 28 0;
#X connect 35 3 34 0;
#X connect 35 3 61 0;
#X connect 35 4 13 0;
#X connect 36 0 42 0;
#X connect 39 0 41 0;
#X connect 40 0 41 1;
#X connect 41 0 102 0;
#X connect 42 0 62 0;
#X connect 43 0 44 0;
#X connect 44 0 63 0;
#X connect 46 0 64 0;
#X connect 46 1 64 1;
#X connect 47 0 48 0;
#X connect 49 0 47 0;
#X connect 49 1 52 0;
#X connect 49 1 100 0;
#X connect 51 0 11 0;
#X connect 52 0 53 0;
#X connect 52 0 57 0;
#X connect 53 0 52 1;
#X connect 54 0 55 0;
#X connect 55 0 48 0;
#X connect 57 0 54 0;
#X connect 58 0 50 0;
#X connect 58 0 14 0;
#X connect 58 0 105 0;
#X connect 61 0 98 0;
#X connect 62 0 37 0;
#X connect 63 0 38 0;
#X connect 64 0 65 0;
#X connect 65 0 66 0;
#X connect 65 0 94 0;
#X connect 65 1 67 0;
#X connect 65 2 67 1;
#X connect 66 0 68 0;
#X connect 67 0 66 1;
#X connect 68 0 69 0;
#X connect 68 0 70 1;
#X connect 69 0 68 1;
#X connect 70 0 71 0;
#X connect 71 0 72 0;
#X connect 73 0 74 0;
#X connect 74 0 67 0;
#X connect 74 1 68 1;
#X connect 74 2 75 0;
#X connect 75 0 72 0;
#X connect 76 0 77 0;
#X connect 77 0 78 0;
#X connect 77 1 70 0;
#X connect 78 0 72 0;
#X connect 79 0 80 0;
#X connect 80 0 81 0;
#X connect 80 1 89 0;
#X connect 80 2 90 0;
#X connect 81 0 82 0;
#X connect 82 0 83 0;
#X connect 82 1 84 1;
#X connect 83 0 87 1;
#X connect 83 1 85 0;
#X connect 84 0 82 0;
#X connect 85 0 86 0;
#X connect 86 0 84 0;
#X connect 86 1 87 0;
#X connect 87 0 88 0;
#X connect 89 0 81 0;
#X connect 90 0 81 0;
#X connect 95 0 96 0;
#X connect 97 0 5 0;
#X connect 98 0 24 0;
#X connect 100 0 101 0;
#X connect 102 0 35 0;
#X connect 103 0 35 0;
#X connect 103 0 109 0;
#X connect 107 0 2 0;
#X connect 109 0 110 0;
#X coords 0 -1 1 1 85 88 1 100 100;
