#N canvas 152 45 499 652 10;
#X declare -path abs;
#X obj 18 -18 declare -path abs;
#X floatatom 12 438 5 0 0 0 - - -;
#X obj 59 360 + 0.499;
#X obj 59 381 int;
#X obj 252 104 loadbang;
#X obj 59 322 line;
#X floatatom 59 343 5 0 0 0 - - -;
#X obj 59 301 pack 0 20;
#X msg 252 124 vibrato 200 0.5;
#X obj 312 302 t f f;
#X floatatom 312 323 5 0 0 0 - - -;
#X obj 240 332 t f f;
#X floatatom 240 353 5 0 0 0 - - -;
#X floatatom 240 393 5 0 0 0 - - -;
#X obj 240 372 -;
#X obj 311 427 trigger f f;
#X obj 311 448 t f b;
#X obj 311 469 f;
#X obj 311 490 +;
#X obj 311 511 * 0.5;
#X floatatom 311 532 5 0 0 0 - - -;
#X obj 312 281 max 1e-21;
#X obj 143 250 fiddle~ 2048 1 20 3;
#X obj 312 341 * 0.775;
#X obj 312 402 s amp-high;
#X obj 240 481 s amp-low;
#X obj 257 149 r amp-low;
#X obj 327 149 r amp-high;
#X obj 257 170 pack 0 0;
#X obj 312 362 int;
#X obj 240 411 int;
#X obj 240 432 abs;
#X msg 12 559 add2 \$1;
#X msg 12 580 43 45 57 45 57 67 66 43 55 64 45 57 52 59 55 66 43 55
93 69;
#X obj 12 456 t f b;
#X obj 43 476 f;
#X obj 73 476 + 1;
#X obj 43 518 sel 0;
#X msg 43 539 set;
#X text 354 532 Average amplitude;
#X obj 43 497 mod 30;
#X obj 59 402 change;
#X text -2 402 Change?;
#X obj 240 290 change 0;
#X obj 312 383 change;
#X obj 240 453 change;
#N canvas 0 22 728 616 tempo-analysis 0;
#X obj 271 258 timer;
#X obj 272 124 f;
#X obj 303 124 + 1;
#X obj 338 173 sel 3;
#X msg 428 72 0;
#X obj 271 185 moses 1;
#X obj 271 308 f;
#X obj 303 308 +;
#X obj 271 284 t b f;
#X obj 340 308 == 3;
#X obj 271 370 spigot;
#X obj 271 342 /;
#X obj 272 146 t f f f;
#X obj 272 82 bng 15 250 50 0 empty empty empty 17 7 0 10 -262144 -1
-1;
#X obj 271 394 expr 60000 / $f1;
#X floatatom 271 415 5 0 0 0 - - -;
#X obj 271 210 t b;
#X obj 302 210 t b b;
#X obj 272 40 inlet;
#X obj 271 433 outlet;
#X connect 0 0 8 0;
#X connect 1 0 2 0;
#X connect 1 0 12 0;
#X connect 2 0 1 1;
#X connect 3 0 4 0;
#X connect 4 0 1 1;
#X connect 4 0 7 1;
#X connect 5 0 16 0;
#X connect 5 1 17 0;
#X connect 6 0 7 1;
#X connect 6 0 11 0;
#X connect 7 0 6 1;
#X connect 8 0 6 0;
#X connect 8 1 7 0;
#X connect 9 0 10 1;
#X connect 10 0 14 0;
#X connect 11 0 10 0;
#X connect 12 0 3 0;
#X connect 12 1 5 0;
#X connect 12 2 9 0;
#X connect 12 2 11 1;
#X connect 13 0 1 0;
#X connect 14 0 15 0;
#X connect 15 0 19 0;
#X connect 16 0 0 0;
#X connect 17 0 0 0;
#X connect 17 1 0 1;
#X connect 18 0 13 0;
#X restore 175 503 pd tempo-analysis;
#X floatatom 175 524 5 0 0 0 - - -;
#X obj 240 311 min 100;
#N canvas 0 22 728 616 tempo-analysis 0;
#X obj 271 258 timer;
#X obj 272 124 f;
#X obj 303 124 + 1;
#X obj 338 173 sel 3;
#X msg 428 72 0;
#X obj 271 185 moses 1;
#X obj 271 308 f;
#X obj 303 308 +;
#X obj 271 284 t b f;
#X obj 340 308 == 3;
#X obj 271 370 spigot;
#X obj 271 342 /;
#X obj 272 146 t f f f;
#X obj 272 82 bng 15 250 50 0 empty empty empty 17 7 0 10 -262144 -1
-1;
#X obj 271 394 expr 60000 / $f1;
#X floatatom 271 415 5 0 0 0 - - -;
#X obj 271 210 t b;
#X obj 302 210 t b b;
#X obj 272 40 inlet;
#X obj 271 433 outlet;
#X connect 0 0 8 0;
#X connect 1 0 2 0;
#X connect 1 0 12 0;
#X connect 2 0 1 1;
#X connect 3 0 4 0;
#X connect 4 0 1 1;
#X connect 4 0 7 1;
#X connect 5 0 16 0;
#X connect 5 1 17 0;
#X connect 6 0 7 1;
#X connect 6 0 11 0;
#X connect 7 0 6 1;
#X connect 8 0 6 0;
#X connect 8 1 7 0;
#X connect 9 0 10 1;
#X connect 10 0 14 0;
#X connect 11 0 10 0;
#X connect 12 0 3 0;
#X connect 12 1 5 0;
#X connect 12 2 9 0;
#X connect 12 2 11 1;
#X connect 13 0 1 0;
#X connect 14 0 15 0;
#X connect 15 0 19 0;
#X connect 16 0 0 0;
#X connect 17 0 0 0;
#X connect 17 1 0 1;
#X connect 18 0 13 0;
#X restore 137 544 pd tempo-analysis;
#X floatatom 137 565 5 0 0 0 - - -;
#X msg 257 189 amp-range 50 \$2;
#X obj 46 253 nbx 3 20 -1e+37 1e+37 0 0 empty empty empty 0 -8 0 20
-204800 -1 -1 69 256;
#X obj 187 107 env~;
#X floatatom 187 133 5 0 0 0 - - -;
#X obj 143 60 adc~;
#X obj 123 465 noteout;
#X msg 116 442 \$1 126;
#X floatatom 108 416 5 0 0 0 - - -;
#X obj 314 61 readsf~;
#X msg 335 43 open abs/voice.wav;
#X msg 301 31 1;
#X obj 302 4 t b b;
#X obj 353 -2 bng 15 250 50 0 empty empty empty 17 7 0 10 -262144 -1
-1;
#X msg 121 388 55;
#X msg 153 379 44;
#X msg 148 353 99;
#X obj 100 382 print;
#X connect 1 0 34 0;
#X connect 2 0 3 0;
#X connect 3 0 41 0;
#X connect 3 0 67 0;
#X connect 4 0 8 0;
#X connect 5 0 6 0;
#X connect 6 0 2 0;
#X connect 7 0 5 0;
#X connect 8 0 22 0;
#X connect 9 0 10 0;
#X connect 9 1 21 1;
#X connect 10 0 23 0;
#X connect 10 0 14 1;
#X connect 11 0 12 0;
#X connect 11 1 48 1;
#X connect 12 0 14 0;
#X connect 13 0 30 0;
#X connect 14 0 13 0;
#X connect 15 0 16 0;
#X connect 15 1 18 1;
#X connect 16 0 17 1;
#X connect 16 1 17 0;
#X connect 17 0 18 0;
#X connect 18 0 19 0;
#X connect 19 0 20 0;
#X connect 21 0 9 0;
#X connect 22 0 7 0;
#X connect 22 1 46 0;
#X connect 22 3 15 0;
#X connect 22 3 21 0;
#X connect 22 3 43 0;
#X connect 23 0 29 0;
#X connect 26 0 28 0;
#X connect 27 0 28 1;
#X connect 28 0 51 0;
#X connect 29 0 44 0;
#X connect 30 0 31 0;
#X connect 31 0 45 0;
#X connect 32 0 33 0;
#X connect 34 0 32 0;
#X connect 34 1 35 0;
#X connect 34 1 49 0;
#X connect 35 0 36 0;
#X connect 35 0 40 0;
#X connect 36 0 35 1;
#X connect 37 0 38 0;
#X connect 38 0 33 0;
#X connect 40 0 37 0;
#X connect 41 0 1 0;
#X connect 41 0 52 0;
#X connect 41 0 58 0;
#X connect 41 0 57 0;
#X connect 43 0 48 0;
#X connect 44 0 24 0;
#X connect 45 0 25 0;
#X connect 46 0 47 0;
#X connect 48 0 11 0;
#X connect 49 0 50 0;
#X connect 51 0 22 0;
#X connect 53 0 54 0;
#X connect 55 0 22 0;
#X connect 55 0 53 0;
#X connect 57 0 56 0;
#X connect 59 0 22 0;
#X connect 59 0 53 0;
#X connect 60 0 59 0;
#X connect 61 0 59 0;
#X connect 62 0 61 0;
#X connect 62 1 60 0;
#X connect 63 0 62 0;
#X connect 64 0 57 0;
#X connect 65 0 57 0;
#X connect 66 0 57 0;
