#N struct 1007-symarray float x array symbols 1007-sym;
#N struct 1007-sym symbol name float on;
#N canvas 90 80 770 523 10;
#X declare -path abs;
#X obj 18 -18 declare -path abs;
#X obj 508 64 hradio 15 1 0 12 empty empty empty 0 -8 0 10 -262144
-1 -1 0;
#N canvas 473 338 450 300 count 0;
#X obj 131 154 f 0;
#X obj 156 153 + 1;
#X msg 147 133 0;
#X obj 131 183 outlet;
#X obj 131 59 inlet;
#X obj 131 96 b;
#X obj 178 61 inlet;
#X obj 178 98 b;
#X connect 0 0 1 0;
#X connect 0 0 3 0;
#X connect 1 0 0 1;
#X connect 2 0 0 1;
#X connect 4 0 5 0;
#X connect 5 0 0 0;
#X connect 6 0 7 0;
#X connect 7 0 2 0;
#X restore 677 181 pd count;
#X obj 596 156 t a b;
#X obj 596 205 list prepend;
#X msg 520 205 reset;
#X obj 596 83 bng 15 250 50 0 empty empty empty 17 7 0 10 -262144 -1
-1;
#X obj 596 106 t b b b;
#X msg 461 206 print;
#X obj 596 257 print NOTES;
#X msg 461 181 dump;
#X obj 508 230 m_symbolarray;
#X obj 508 42 mod 12;
#X floatatom 12 438 5 0 0 0 - - -, f 5;
#X obj 59 360 + 0.499;
#X obj 59 381 int;
#X obj 252 104 loadbang;
#X obj 59 322 line;
#X floatatom 59 343 5 0 0 0 - - -, f 5;
#X obj 59 301 pack 0 20;
#X msg 252 124 vibrato 200 0.5;
#X obj 312 302 t f f;
#X floatatom 312 323 5 0 0 0 - - -, f 5;
#X obj 240 332 t f f;
#X floatatom 240 353 5 0 0 0 - - -, f 5;
#X floatatom 240 393 5 0 0 0 - - -, f 5;
#X obj 240 372 -;
#X obj 311 427 trigger f f;
#X obj 311 448 t f b;
#X obj 311 469 f;
#X obj 311 490 +;
#X obj 311 511 * 0.5;
#X floatatom 311 532 5 0 0 0 - - -, f 5;
#X obj 312 281 max 1e-21;
#X obj 143 250 fiddle~ 2048 1 20 3;
#X obj 312 341 * 0.775;
#X obj 312 402 s amp-high;
#X obj 240 481 s amp-low;
#X obj 257 149 r amp-low;
#X obj 327 149 r amp-high;
#X obj 257 170 pack 0 0;
#X obj 312 362 int;
#X obj 240 411 int;
#X obj 240 432 abs;
#X msg 12 559 add2 \$1;
#X msg 12 580 72 69 79 72 69 79 72 69 79 76 72 69 79 55 43 36 76 79
67 38 79 76;
#X obj 12 456 t f b;
#X obj 508 15 r note;
#X obj 43 476 f;
#X obj 73 476 + 1;
#X obj 43 518 sel 0;
#X msg 43 539 set;
#X text 354 532 Average amplitude;
#X obj 43 497 mod 30;
#X obj 59 402 change;
#X text -2 402 Change?;
#X obj 240 290 change 0;
#X obj 312 383 change;
#X obj 240 453 change;
#N canvas 0 22 728 616 tempo-analysis 0;
#X obj 271 258 timer;
#X obj 272 124 f;
#X obj 303 124 + 1;
#X obj 338 173 sel 3;
#X msg 428 72 0;
#X obj 271 185 moses 1;
#X obj 271 308 f;
#X obj 303 308 +;
#X obj 271 284 t b f;
#X obj 340 308 == 3;
#X obj 271 370 spigot;
#X obj 271 342 /;
#X obj 272 146 t f f f;
#X obj 272 82 bng 15 250 50 0 empty empty empty 17 7 0 10 -262144 -1
-1;
#X obj 271 394 expr 60000 / $f1;
#X floatatom 271 415 5 0 0 0 - - -, f 5;
#X obj 271 210 t b;
#X obj 302 210 t b b;
#X obj 272 40 inlet;
#X obj 271 433 outlet;
#X connect 0 0 8 0;
#X connect 1 0 2 0;
#X connect 1 0 12 0;
#X connect 2 0 1 1;
#X connect 3 0 4 0;
#X connect 4 0 1 1;
#X connect 4 0 7 1;
#X connect 5 0 16 0;
#X connect 5 1 17 0;
#X connect 6 0 7 1;
#X connect 6 0 11 0;
#X connect 7 0 6 1;
#X connect 8 0 6 0;
#X connect 8 1 7 0;
#X connect 9 0 10 1;
#X connect 10 0 14 0;
#X connect 11 0 10 0;
#X connect 12 0 3 0;
#X connect 12 1 5 0;
#X connect 12 2 9 0;
#X connect 12 2 11 1;
#X connect 13 0 1 0;
#X connect 14 0 15 0;
#X connect 15 0 19 0;
#X connect 16 0 0 0;
#X connect 17 0 0 0;
#X connect 17 1 0 1;
#X connect 18 0 13 0;
#X restore 175 503 pd tempo-analysis;
#X floatatom 175 524 5 0 0 0 - - -, f 5;
#X obj 595 32 loadbang;
#X obj 240 311 min 100;
#N canvas 0 22 728 616 tempo-analysis 0;
#X obj 271 258 timer;
#X obj 272 124 f;
#X obj 303 124 + 1;
#X obj 338 173 sel 3;
#X msg 428 72 0;
#X obj 271 185 moses 1;
#X obj 271 308 f;
#X obj 303 308 +;
#X obj 271 284 t b f;
#X obj 340 308 == 3;
#X obj 271 370 spigot;
#X obj 271 342 /;
#X obj 272 146 t f f f;
#X obj 272 82 bng 15 250 50 0 empty empty empty 17 7 0 10 -262144 -1
-1;
#X obj 271 394 expr 60000 / $f1;
#X floatatom 271 415 5 0 0 0 - - -, f 5;
#X obj 271 210 t b;
#X obj 302 210 t b b;
#X obj 272 40 inlet;
#X obj 271 433 outlet;
#X connect 0 0 8 0;
#X connect 1 0 2 0;
#X connect 1 0 12 0;
#X connect 2 0 1 1;
#X connect 3 0 4 0;
#X connect 4 0 1 1;
#X connect 4 0 7 1;
#X connect 5 0 16 0;
#X connect 5 1 17 0;
#X connect 6 0 7 1;
#X connect 6 0 11 0;
#X connect 7 0 6 1;
#X connect 8 0 6 0;
#X connect 8 1 7 0;
#X connect 9 0 10 1;
#X connect 10 0 14 0;
#X connect 11 0 10 0;
#X connect 12 0 3 0;
#X connect 12 1 5 0;
#X connect 12 2 9 0;
#X connect 12 2 11 1;
#X connect 13 0 1 0;
#X connect 14 0 15 0;
#X connect 15 0 19 0;
#X connect 16 0 0 0;
#X connect 17 0 0 0;
#X connect 17 1 0 1;
#X connect 18 0 13 0;
#X restore 137 544 pd tempo-analysis;
#X floatatom 137 565 5 0 0 0 - - -, f 5;
#X msg 257 189 amp-range 50 \$2;
#X obj 50 85 cnv 15 85 88 empty empty empty 20 12 0 14 -191407 -66577
0;
#X obj 60 117 nbx 3 20 -1e+37 1e+37 0 0 empty empty empty 0 -8 0 20
-204800 -1 -1 76 256;
#X text 53 86 analysis;
#X msg 596 131 C \, C# \, D \, D# \, E \, F \, F# \, G \, G# \, A \,
A# \, B;
#X symbolatom 61 147 10 0 0 0 - - -, f 10;
#X obj 187 107 env~;
#X floatatom 187 133 5 0 0 0 - - -, f 5;
#X obj 143 60 adc~;
#X obj 82 459 noteout;
#X msg 75 436 \$1 126;
#X floatatom 108 416 5 0 0 0 - - -, f 5;
#X obj 314 61 readsf~;
#X msg 335 43 open abs/voice.wav;
#X msg 301 31 1;
#X obj 302 4 t b b;
#X obj 353 -2 bng 15 250 50 0 empty empty empty 17 7 0 10 -262144 -1
-1;
#X msg 121 388 55;
#X msg 153 379 53;
#X msg 148 353 58;
#X connect 1 0 11 0;
#X connect 2 0 4 1;
#X connect 3 0 4 0;
#X connect 3 1 2 0;
#X connect 4 0 11 1;
#X connect 5 0 11 0;
#X connect 6 0 7 0;
#X connect 7 0 69 0;
#X connect 7 1 5 0;
#X connect 7 2 2 1;
#X connect 8 0 11 0;
#X connect 10 0 11 0;
#X connect 11 0 70 0;
#X connect 11 1 9 0;
#X connect 12 0 1 0;
#X connect 13 0 46 0;
#X connect 14 0 15 0;
#X connect 15 0 54 0;
#X connect 16 0 20 0;
#X connect 17 0 18 0;
#X connect 18 0 14 0;
#X connect 19 0 17 0;
#X connect 20 0 34 0;
#X connect 21 0 22 0;
#X connect 21 1 33 1;
#X connect 22 0 35 0;
#X connect 22 0 26 1;
#X connect 23 0 24 0;
#X connect 23 1 62 1;
#X connect 24 0 26 0;
#X connect 25 0 42 0;
#X connect 26 0 25 0;
#X connect 27 0 28 0;
#X connect 27 1 30 1;
#X connect 28 0 29 1;
#X connect 28 1 29 0;
#X connect 29 0 30 0;
#X connect 30 0 31 0;
#X connect 31 0 32 0;
#X connect 33 0 21 0;
#X connect 34 0 19 0;
#X connect 34 1 59 0;
#X connect 34 3 27 0;
#X connect 34 3 33 0;
#X connect 34 3 56 0;
#X connect 35 0 41 0;
#X connect 38 0 40 0;
#X connect 39 0 40 1;
#X connect 40 0 65 0;
#X connect 41 0 57 0;
#X connect 42 0 43 0;
#X connect 43 0 58 0;
#X connect 44 0 45 0;
#X connect 46 0 44 0;
#X connect 46 1 48 0;
#X connect 46 1 63 0;
#X connect 47 0 12 0;
#X connect 48 0 49 0;
#X connect 48 0 53 0;
#X connect 49 0 48 1;
#X connect 50 0 51 0;
#X connect 51 0 45 0;
#X connect 53 0 50 0;
#X connect 54 0 13 0;
#X connect 54 0 67 0;
#X connect 54 0 76 0;
#X connect 54 0 75 0;
#X connect 56 0 62 0;
#X connect 57 0 36 0;
#X connect 58 0 37 0;
#X connect 59 0 60 0;
#X connect 61 0 6 0;
#X connect 62 0 23 0;
#X connect 63 0 64 0;
#X connect 65 0 34 0;
#X connect 69 0 3 0;
#X connect 71 0 72 0;
#X connect 73 0 34 0;
#X connect 73 0 71 0;
#X connect 75 0 74 0;
#X connect 77 0 34 0;
#X connect 77 0 71 0;
#X connect 78 0 77 0;
#X connect 79 0 77 0;
#X connect 80 0 79 0;
#X connect 80 1 78 0;
#X connect 81 0 80 0;
#X connect 82 0 75 0;
#X connect 83 0 75 0;
#X connect 84 0 75 0;
